# xmcd
#
# Track frame offsets:
#	150
#	22461
#	41220
#	58170
#	74271
#	88070
#	104436
#	122815
#	136460
#	151792
#	172522
#	194659
#
# Disc length: 2850 seconds
# Revision: 3
# Processed by: cddbd v1.5.2PL0 Copyright (c) Steve Scherf et al.
# Submitted via: dBpowerAMP V12.0
#
DISCID=ae0b200c
DTITLE=Tim McGraw - Number One Hits, Disc 1
DYEAR=2010
DGENRE=Country
TTITLE0=Live Like You Were Dying
TTITLE1=Don't Take the Girl
TTITLE2=It's Your Love (w/ Faith Hill)
TTITLE3=Just to See You Smile
TTITLE4=Something Like That
TTITLE5=My Next Thirty Years
TTITLE6=The Cowboy in Me
TTITLE7=She Never Lets It Go to Her Heart
TTITLE8=I Like It, I Love It
TTITLE9=Watch The Wind Blow By
TTITLE10=Please Remember Me
TTITLE11=Real Good Man
EXTD=
EXTT0=
EXTT1=
EXTT2=
EXTT3=
EXTT4=
EXTT5=
EXTT6=
EXTT7=
EXTT8=
EXTT9=
EXTT10=
EXTT11=
PLAYORDER=
